# xmcd CD database file
#
# Track frame offsets:
#	150
#	7710
#	26680
#	45880
#	64680
#	81813
#	97854
#	117100
#	134748
#	155787
#	176925
#	184963
#	201538
#	222734
#	243106
#	258920
#
# Disc length: 4042 seconds
#
# Revision: 0
# Processed by: cddbd v1.5.1PL0 Copyright (c) Steve Scherf et al.
# Submitted via: CDex 1.51
#
DISCID=de0fc810
DTITLE=丼 - 旅するコドモ
DYEAR=2004
DGENRE=Electronic
TTITLE0=なでる
TTITLE1=live.1
TTITLE2=live.2
TTITLE3=面影
TTITLE4=ヘンゼルエンゼル
TTITLE5=ほとり
TTITLE6=セツナ
TTITLE7=電気羊
TTITLE8=センチネル
TTITLE9=つちくれ
TTITLE10=はぐれたけど
TTITLE11=まくら
TTITLE12=かわいいかたち
TTITLE13=セツナ DJ銚子 REMIX
TTITLE14=セツナ Mystery-Jam REMIX
TTITLE15=ヤルハラのテーマ
EXTD=YEAR: 2004
EXTT0=
EXTT1=
EXTT2=
EXTT3=
EXTT4=
EXTT5=
EXTT6=
EXTT7=
EXTT8=
EXTT9=
EXTT10=
EXTT11=
EXTT12=
EXTT13=
EXTT14=
EXTT15=
PLAYORDER=
